<?xml version="1.0" encoding="utf-8"?>
<!-- Generator: Adobe Illustrator 25.0.1, SVG Export Plug-In . SVG Version: 6.00 Build 0)  -->
<svg version="1.1" id="Capa_1" xmlns="http://www.w3.org/2000/svg" xmlns:xlink="http://www.w3.org/1999/xlink" x="0px" y="0px"
	 viewBox="0 0 47 47" style="enable-background:new 0 0 47 47;" xml:space="preserve">
<style type="text/css">
	.st0{fill:none;stroke:#DD71C6;stroke-width:2;stroke-linecap:round;stroke-linejoin:round;}
</style>
<path class="st0" d="M41.42,23.26c0.01,2.58-0.6,5.13-1.76,7.44c-1.38,2.76-3.51,5.09-6.13,6.72c-2.63,1.63-5.66,2.49-8.75,2.49
	c-2.58,0.01-5.13-0.6-7.44-1.76L6.17,41.87l3.72-11.16c-1.17-2.31-1.77-4.86-1.76-7.44c0-3.09,0.86-6.12,2.49-8.75
	c1.63-2.63,3.95-4.75,6.72-6.13c2.31-1.17,4.86-1.77,7.44-1.76h0.98c4.08,0.23,7.94,1.95,10.83,4.84c2.89,2.89,4.61,6.75,4.84,10.83
	V23.26z"/>
</svg>
