<?xml version="1.0" encoding="utf-8"?>
<!-- Generator: Adobe Illustrator 25.0.1, SVG Export Plug-In . SVG Version: 6.00 Build 0)  -->
<svg version="1.1" id="Capa_1" xmlns="http://www.w3.org/2000/svg" xmlns:xlink="http://www.w3.org/1999/xlink" x="0px" y="0px"
	 viewBox="0 0 47 47" style="enable-background:new 0 0 47 47;" xml:space="preserve">
<style type="text/css">
	.st0{fill:none;stroke:#73C3F4;stroke-width:2;stroke-linecap:round;stroke-linejoin:round;}
</style>
<path class="st0" d="M39.46,14.45H8.13c-2.16,0-3.92,1.75-3.92,3.92v19.58c0,2.16,1.75,3.92,3.92,3.92h31.33
	c2.16,0,3.92-1.75,3.92-3.92V18.37C43.38,16.21,41.62,14.45,39.46,14.45z"/>
<path class="st0" d="M31.63,41.87V10.53c0-1.04-0.41-2.03-1.15-2.77c-0.73-0.73-1.73-1.15-2.77-1.15h-7.83
	c-1.04,0-2.03,0.41-2.77,1.15c-0.73,0.73-1.15,1.73-1.15,2.77v31.33"/>
</svg>
