<?xml version="1.0" encoding="utf-8"?>
<!-- Generator: Adobe Illustrator 25.0.1, SVG Export Plug-In . SVG Version: 6.00 Build 0)  -->
<svg version="1.1" id="Capa_1" xmlns="http://www.w3.org/2000/svg" xmlns:xlink="http://www.w3.org/1999/xlink" x="0px" y="0px"
	 viewBox="0 0 30 30" style="enable-background:new 0 0 30 30;" xml:space="preserve">
<style type="text/css">
	.st0{fill:#DD71C6;}
	.st1{fill:#FFFFFF;}
</style>
<g>
	<circle class="st0" cx="15" cy="15" r="15"/>
	<path class="st1" d="M15,12.67c-1.29,0-2.33,1.05-2.33,2.33s1.05,2.33,2.33,2.33c1.29,0,2.33-1.05,2.33-2.33S16.28,12.67,15,12.67z
		 M22,15c0-0.97,0.01-1.92-0.05-2.89c-0.05-1.12-0.31-2.12-1.13-2.93C20,8.35,19.01,8.1,17.89,8.05C16.92,7.99,15.96,8,15,8
		c-0.97,0-1.92-0.01-2.89,0.05C10.99,8.1,10,8.36,9.18,9.18C8.35,10,8.1,10.99,8.05,12.11C7.99,13.08,8,14.04,8,15
		s-0.01,1.92,0.05,2.89C8.1,19.01,8.36,20,9.18,20.82c0.82,0.82,1.81,1.08,2.93,1.13C13.08,22.01,14.04,22,15,22
		c0.97,0,1.92,0.01,2.89-0.05c1.12-0.05,2.12-0.31,2.93-1.13c0.82-0.82,1.08-1.81,1.13-2.93C22.01,16.92,22,15.97,22,15z M15,18.59
		c-1.99,0-3.59-1.6-3.59-3.59s1.6-3.59,3.59-3.59c1.99,0,3.59,1.6,3.59,3.59S16.99,18.59,15,18.59z M18.74,12.1
		c-0.46,0-0.84-0.37-0.84-0.84c0-0.46,0.37-0.84,0.84-0.84c0.46,0,0.84,0.37,0.84,0.84c0,0.11-0.02,0.22-0.06,0.32
		c-0.04,0.1-0.1,0.19-0.18,0.27c-0.08,0.08-0.17,0.14-0.27,0.18C18.96,12.08,18.85,12.1,18.74,12.1z"/>
</g>
</svg>
