<?xml version="1.0" encoding="utf-8"?>
<!-- Generator: Adobe Illustrator 25.0.1, SVG Export Plug-In . SVG Version: 6.00 Build 0)  -->
<svg version="1.1" id="Capa_1" xmlns="http://www.w3.org/2000/svg" xmlns:xlink="http://www.w3.org/1999/xlink" x="0px" y="0px"
	 viewBox="0 0 30 30" style="enable-background:new 0 0 30 30;" xml:space="preserve">
<style type="text/css">
	.st0{fill:#DD71C6;}
	.st1{fill:#FFFFFF;}
</style>
<g>
	<circle class="st0" cx="15" cy="15" r="15"/>
	<path class="st1" d="M22,10.35c-0.52,0.23-1.08,0.38-1.65,0.45c0.59-0.36,1.05-0.91,1.26-1.59c-0.55,0.33-1.17,0.56-1.82,0.69
		C19.26,9.35,18.51,9,17.69,9c-1.59,0-2.87,1.29-2.87,2.87c0,0.23,0.02,0.45,0.07,0.65c-2.39-0.12-4.5-1.26-5.92-3
		c-0.25,0.43-0.39,0.92-0.39,1.45c0,0.99,0.51,1.88,1.27,2.39c-0.46-0.01-0.91-0.14-1.3-0.35c0,0.01,0,0.02,0,0.03
		c0,1.39,0.99,2.55,2.3,2.82c-0.23,0.06-0.49,0.09-0.75,0.09c-0.18,0-0.37-0.01-0.54-0.05c0.37,1.14,1.43,1.97,2.68,2
		c-0.98,0.76-2.22,1.22-3.56,1.22c-0.24,0-0.46-0.01-0.69-0.04c1.27,0.82,2.78,1.29,4.4,1.29c5.28,0,8.17-4.38,8.17-8.17
		c0-0.13,0-0.25-0.01-0.37C21.13,11.43,21.61,10.93,22,10.35z"/>
</g>
</svg>
