<?xml version="1.0" encoding="utf-8"?>
<!-- Generator: Adobe Illustrator 25.0.1, SVG Export Plug-In . SVG Version: 6.00 Build 0)  -->
<svg version="1.1" id="Capa_1" xmlns="http://www.w3.org/2000/svg" xmlns:xlink="http://www.w3.org/1999/xlink" x="0px" y="0px"
	 viewBox="0 0 20 20" style="enable-background:new 0 0 20 20;" xml:space="preserve">
<style type="text/css">
	.st0{fill:#DD71C6;}
</style>
<path class="st0" d="M13.12,13.52l1.52-1.52c0.2-0.2,0.46-0.34,0.74-0.4s0.57-0.03,0.84,0.07l1.85,0.74c0.27,0.11,0.5,0.3,0.67,0.54
	C18.91,13.2,19,13.48,19,13.78v3.39c0,0.2-0.04,0.39-0.12,0.58c-0.08,0.18-0.19,0.35-0.34,0.48c-0.14,0.14-0.31,0.24-0.5,0.31
	c-0.19,0.07-0.38,0.1-0.58,0.09C4.49,17.81,1.87,6.84,1.38,2.63c-0.02-0.21,0-0.42,0.06-0.61c0.06-0.2,0.17-0.38,0.31-0.53
	c0.14-0.15,0.31-0.28,0.5-0.36C2.44,1.04,2.64,1,2.85,1h3.27C6.41,1,6.7,1.09,6.94,1.25c0.24,0.16,0.43,0.4,0.54,0.67l0.74,1.85
	C8.33,4.04,8.35,4.33,8.3,4.61C8.24,4.89,8.1,5.15,7.9,5.36L6.38,6.88C6.38,6.88,7.25,12.79,13.12,13.52z"/>
</svg>
