<?xml version="1.0" encoding="utf-8"?>
<!-- Generator: Adobe Illustrator 25.0.1, SVG Export Plug-In . SVG Version: 6.00 Build 0)  -->
<svg version="1.1" id="Capa_1" xmlns="http://www.w3.org/2000/svg" xmlns:xlink="http://www.w3.org/1999/xlink" x="0px" y="0px"
	 viewBox="0 0 140 64" style="enable-background:new 0 0 140 64;" xml:space="preserve">
<style type="text/css">
	.st0{fill:#A4E7ED;}
	.st1{fill:#73C3F4;}
	.st2{fill:#DD71C6;}
	.st3{fill:#FFD900;}
	.st4{fill:#4D85B0;}
	.st5{fill:#55A301;}
	.st6{fill:#FFFFFF;}
</style>
<g>
	<circle class="st0" cx="118.26" cy="21.7" r="20.74"/>
	<circle class="st1" cx="27.67" cy="21.7" r="20.74"/>
	<circle class="st2" cx="22.87" cy="49.64" r="13.4"/>
	<circle class="st3" cx="9.33" cy="39.48" r="8.33"/>
	<path class="st4" d="M24.83,39.54c0.1-0.3,0.17-0.61,0.21-0.92c0,0,1.03,1,1.54,2.9c0.51,1.9,1.09,2.55,1.97,3.39
		c0.89,0.83,3.57,2.55,6.35,5.68c2.72,3.07,6.27,7.23,6.4,7.38c-0.09-0.18-2.93-5.96-4.49-8.05c-1.58-2.12-2.72-3.9-4.23-4.61
		c-1.51-0.71-2.65-2.49-2.64-5.29c0.01-2.8-1.47-3.98-2.37-4.5c-0.9-0.52-3.71-3.03-2.23-6.83c1.48-3.81,8.95-6.45,10.86-6.96
		c1.91-0.51,6.18-1.96,6.18-1.96s-4.37,0.2-7.07,1.13c-2.66,0.91-5.61,1.65-5.7,1.68c0.05-0.05,0.92-1.04,0.68-2.02
		c-0.09-0.45-0.35-0.86-0.72-1.13c-0.37-0.27-0.83-0.4-1.29-0.35c-0.71,0.1-0.91,0.23-0.94,0.25c0.09-0.1,1.55-1.58,2.46-2.17
		c0.91-0.59,1.96-1.61,2.3-2.21c0,0-3.54,1.96-4.99,2.81s-3.09,2.15-4.78,4.38c-1.69,2.23-1.99,4.55-1.65,6.75
		c0.34,2.2,1.33,3.66,1.75,4.46c0.42,0.8,0.8,2.23,0.29,2.97c-0.51,0.75-2.37,3.12-2.49,5.14c-0.12,2.01,0.72,3.47,1.73,4.77
		c1.01,1.3,3.11,5.17,4.59,8.99c1.48,3.82,2.37,4.5,2.37,4.5s-1.23-8.01-2.17-10.25c-0.95-2.24-2.2-4.8-2.48-5.13
		c-0.29-0.32-1.16-1.32-0.64-2.37C24.13,40.9,24.64,40.15,24.83,39.54z M24.19,24.41c0,0-0.05-1.71,0.93-2.59
		c0,0,0.23,1.41,1.61,1.65C26.74,23.48,25.13,24.31,24.19,24.41z"/>
	<path class="st3" d="M40.32,34.31c-0.2-1.78-0.4-3.51-0.62-5.15c-0.22-1.63-0.48-3.18-0.78-4.57l-0.04-0.18h-1.94l-0.07,0.1
		c-0.48,0.68-0.97,1.4-1.45,2.12c-0.48,0.73-0.97,1.49-1.46,2.28c-0.49,0.79-1,1.63-1.52,2.51c-0.52,0.87-1.06,1.81-1.63,2.8
		l-0.21,0.35h2.44l0.07-0.12c0.22-0.4,0.43-0.8,0.64-1.17l0.55-1h3.6c0.03,0.3,0.06,0.6,0.09,0.91c0.04,0.39,0.07,0.78,0.09,1.16
		l0.01,0.22h2.26L40.32,34.31z M35.33,30.41c0.41-0.71,0.8-1.36,1.17-1.94c0.3-0.47,0.58-0.92,0.84-1.33c0.07,0.51,0.13,1,0.19,1.49
		c0.07,0.6,0.13,1.2,0.18,1.78H35.33z"/>
	<path class="st3" d="M52.72,28.25c0.29-0.45,0.45-0.98,0.45-1.52c0.02-0.44-0.11-0.88-0.36-1.24c-0.23-0.31-0.54-0.57-0.89-0.74
		c-0.37-0.18-0.76-0.3-1.17-0.35c-0.41-0.06-0.82-0.09-1.23-0.09c-0.48,0-0.96,0.02-1.43,0.06c-0.46,0.04-0.91,0.1-1.36,0.2
		l-0.14,0.03l-2.35,9.76l0.23,0.05c0.47,0.1,0.96,0.17,1.44,0.21c0.53,0.04,1.04,0.07,1.52,0.07c1.65,0,2.94-0.31,3.83-0.93
		c0.92-0.64,1.38-1.55,1.38-2.72c0.01-0.44-0.12-0.88-0.38-1.24c-0.17-0.23-0.38-0.43-0.62-0.58
		C52.09,28.98,52.45,28.66,52.72,28.25z M49.76,28.29c-0.26,0.05-0.52,0.08-0.79,0.08h-1.05l0.51-2.12c0.1-0.01,0.21-0.02,0.34-0.03
		c0.21-0.01,0.42-0.02,0.63-0.02c0.41-0.02,0.81,0.05,1.19,0.21c0.16,0.07,0.35,0.23,0.35,0.67c0.01,0.2-0.04,0.39-0.14,0.56
		c-0.11,0.16-0.25,0.3-0.41,0.4C50.19,28.17,49.98,28.25,49.76,28.29z M50.17,31.98c-0.16,0.21-0.36,0.38-0.59,0.49
		c-0.27,0.12-0.55,0.21-0.84,0.25c-0.31,0.04-0.62,0.07-0.93,0.07c-0.25,0-0.49,0-0.7-0.02l-0.24-0.02l0.62-2.54h1.41
		c0.56,0,0.96,0.1,1.19,0.29c0.1,0.08,0.19,0.19,0.24,0.31c0.06,0.12,0.08,0.25,0.08,0.39C50.41,31.46,50.33,31.74,50.17,31.98z"/>
	<path class="st3" d="M59.76,27.22c-0.43-0.4-1.04-0.61-1.81-0.61c-0.66-0.01-1.31,0.14-1.89,0.43c-0.55,0.28-1.04,0.67-1.44,1.14
		c-0.4,0.48-0.71,1.03-0.91,1.63c-0.21,0.61-0.31,1.25-0.31,1.89c0,0.4,0.06,0.79,0.18,1.17c0.12,0.38,0.32,0.72,0.6,1.01
		c0.27,0.29,0.61,0.51,0.98,0.65c0.46,0.17,0.94,0.25,1.43,0.24c0.49,0.01,0.98-0.04,1.45-0.16c0.34-0.08,0.67-0.18,0.99-0.32
		l0.16-0.07l-0.19-1.85l-0.29,0.12c-0.57,0.24-1.19,0.37-1.81,0.37c-1.21,0-1.37-0.57-1.38-1.01c0.53-0.02,1.06-0.07,1.58-0.13
		c0.56-0.07,1.11-0.21,1.63-0.44c0.47-0.21,0.88-0.52,1.21-0.92c0.34-0.45,0.51-1.01,0.48-1.57c0.01-0.29-0.05-0.59-0.16-0.86
		C60.14,27.66,59.97,27.42,59.76,27.22z M57.7,28.46c0.26,0,0.45,0.05,0.53,0.15c0.09,0.09,0.14,0.22,0.14,0.35
		c0,0.38-0.2,0.64-0.62,0.84c-0.42,0.2-1.12,0.32-2.04,0.37c0.06-0.17,0.13-0.34,0.21-0.5c0.12-0.23,0.28-0.45,0.47-0.64
		c0.17-0.17,0.38-0.31,0.6-0.41C57.21,28.51,57.45,28.46,57.7,28.46z"/>
	<path class="st3" d="M62.96,31.86c-0.02,0.11-0.02,0.23-0.02,0.34c0,0.09,0.01,0.19,0.03,0.28c0.01,0.07,0.04,0.13,0.09,0.18
		c0.06,0.06,0.13,0.11,0.21,0.13c0.15,0.05,0.31,0.07,0.47,0.06c0.22,0,0.45-0.03,0.66-0.09c0.2-0.05,0.4-0.12,0.59-0.2l0.29-0.12
		l0.17,1.84l-0.16,0.07c-0.27,0.11-0.56,0.21-0.84,0.28c-0.39,0.09-0.8,0.14-1.21,0.13c-0.86,0-1.5-0.2-1.89-0.59
		c-0.39-0.39-0.58-0.93-0.58-1.6c0-0.24,0.02-0.48,0.05-0.72c0.04-0.26,0.09-0.53,0.16-0.78l1.46-6.17l2.26-0.36l-0.55,2.26h2.39
		l-0.45,1.86h-2.4l-0.65,2.72C63.01,31.57,62.98,31.73,62.96,31.86z"/>
	<path class="st3" d="M68.57,31.87c-0.02,0.11-0.02,0.23-0.02,0.34c0,0.09,0.01,0.19,0.03,0.28c0.01,0.07,0.04,0.13,0.09,0.18
		c0.06,0.06,0.13,0.11,0.22,0.13c0.15,0.05,0.31,0.07,0.47,0.06c0.22,0,0.45-0.03,0.66-0.09c0.2-0.05,0.4-0.12,0.59-0.2l0.29-0.12
		l0.17,1.84l-0.16,0.07c-0.27,0.11-0.56,0.21-0.85,0.28c-0.39,0.09-0.8,0.14-1.2,0.13c-0.86,0-1.5-0.2-1.89-0.59
		c-0.39-0.39-0.59-0.93-0.58-1.6c0-0.24,0.02-0.48,0.05-0.72c0.04-0.26,0.09-0.53,0.16-0.78l1.46-6.17l2.26-0.36l-0.55,2.26h2.39
		l-0.45,1.86h-2.4l-0.66,2.72C68.62,31.57,68.59,31.74,68.57,31.87z"/>
	<path class="st3" d="M78.29,27.23c-0.22-0.21-0.49-0.36-0.78-0.45c-0.33-0.11-0.68-0.16-1.03-0.16c-0.66-0.01-1.31,0.14-1.9,0.43
		c-0.55,0.28-1.04,0.67-1.44,1.14c-0.4,0.48-0.71,1.03-0.91,1.63c-0.21,0.61-0.31,1.25-0.31,1.89c0,0.4,0.06,0.79,0.18,1.17
		c0.12,0.38,0.32,0.72,0.6,1.01c0.27,0.29,0.61,0.51,0.98,0.65c0.46,0.17,0.94,0.25,1.43,0.24c0.49,0.01,0.98-0.05,1.45-0.16
		c0.34-0.08,0.67-0.19,0.99-0.32l0.16-0.07l-0.19-1.85l-0.29,0.12c-0.57,0.24-1.19,0.37-1.81,0.37c-1.21,0-1.37-0.57-1.38-1.01
		c0.53-0.02,1.06-0.07,1.58-0.13c0.56-0.06,1.11-0.21,1.63-0.43c0.47-0.2,0.89-0.52,1.21-0.92c0.34-0.45,0.51-1.01,0.48-1.57
		c0.01-0.3-0.04-0.59-0.16-0.86C78.68,27.67,78.51,27.43,78.29,27.23z M76.23,28.47c0.26,0,0.45,0.05,0.53,0.16
		c0.09,0.09,0.14,0.22,0.14,0.35c0,0.37-0.2,0.64-0.62,0.84c-0.42,0.2-1.12,0.31-2.05,0.36c0.06-0.17,0.13-0.34,0.21-0.5
		c0.12-0.23,0.28-0.45,0.47-0.64c0.17-0.17,0.38-0.31,0.6-0.41C75.74,28.52,75.99,28.47,76.23,28.47z"/>
	<path class="st3" d="M85.33,26.99l-0.64,1.84l-0.22-0.08c-0.18-0.06-0.37-0.11-0.57-0.15c-0.24-0.04-0.48-0.05-0.72-0.05
		c-0.16,0-0.32,0.01-0.47,0.03c-0.1,0.01-0.19,0.03-0.28,0.05l-1.42,5.95h-2.17l1.78-7.39l0.12-0.04c0.43-0.14,0.86-0.26,1.3-0.35
		c0.5-0.11,1.01-0.16,1.53-0.16c0.12,0,0.26,0.01,0.4,0.02c0.15,0.01,0.28,0.03,0.42,0.05c0.14,0.02,0.28,0.05,0.4,0.07
		c0.12,0.03,0.23,0.06,0.34,0.11L85.33,26.99z"/>
	<path class="st3" d="M51.72,37.33l-0.13,0.32c-0.73,1.8-1.49,3.52-2.24,5.13c-0.75,1.61-1.55,3.15-2.4,4.6l-0.07,0.12h-2.05
		l-0.03-0.2c-0.07-0.5-0.15-1-0.22-1.48s-0.14-0.99-0.19-1.48c-0.06-0.5-0.12-1.01-0.17-1.53c-0.03-0.27-0.05-0.56-0.08-0.85
		c-0.46,0.84-0.91,1.65-1.36,2.44c-0.57,1-1.18,2.02-1.82,3L40.9,47.5h-2.05l-0.02-0.21c-0.07-0.81-0.13-1.63-0.16-2.43
		s-0.05-1.63-0.05-2.47c0-1.53,0.05-3.15,0.16-4.83l0.01-0.22h2.23l-0.02,0.25c-0.06,0.9-0.1,1.79-0.14,2.66
		c-0.04,0.87-0.06,1.77-0.06,2.67v1.01c0,0.08,0,0.16,0,0.23c0.16-0.27,0.33-0.55,0.49-0.83c0.31-0.52,0.61-1.06,0.91-1.6
		c0.3-0.54,0.59-1.09,0.87-1.62c0.28-0.53,0.55-1.06,0.8-1.55l0.07-0.13h1.9l0.01,0.22c0.03,0.5,0.06,1.03,0.1,1.57
		c0.04,0.54,0.09,1.1,0.15,1.64c0.05,0.54,0.11,1.08,0.17,1.6c0.02,0.24,0.05,0.47,0.08,0.7c0.16-0.3,0.31-0.62,0.47-0.95
		c0.28-0.59,0.56-1.21,0.84-1.83c0.28-0.63,0.56-1.29,0.82-1.95c0.27-0.66,0.53-1.32,0.78-1.96l0.06-0.16L51.72,37.33z"/>
	<path class="st3" d="M56.87,40.13c-0.43-0.4-1.04-0.61-1.81-0.61c-0.66-0.01-1.31,0.14-1.9,0.43c-0.55,0.28-1.04,0.67-1.44,1.14
		c-0.4,0.48-0.71,1.03-0.91,1.63c-0.21,0.61-0.31,1.25-0.31,1.89c0,0.4,0.06,0.79,0.18,1.17c0.12,0.38,0.32,0.72,0.6,1.01
		c0.27,0.29,0.61,0.51,0.98,0.65c0.46,0.17,0.94,0.25,1.43,0.24c0.49,0.01,0.98-0.05,1.46-0.16c0.34-0.08,0.67-0.19,0.99-0.32
		l0.16-0.07l-0.19-1.85l-0.29,0.12c-0.57,0.24-1.19,0.37-1.81,0.37c-1.21,0-1.37-0.57-1.38-1.01c0.53-0.02,1.06-0.07,1.58-0.13
		c0.56-0.07,1.11-0.21,1.63-0.44c0.47-0.2,0.89-0.52,1.21-0.92c0.34-0.46,0.51-1.01,0.48-1.58c0.01-0.29-0.05-0.58-0.16-0.86
		C57.26,40.58,57.09,40.33,56.87,40.13z M54.81,41.38c0.26,0,0.45,0.05,0.53,0.16c0.09,0.09,0.14,0.22,0.14,0.35
		c0,0.37-0.2,0.64-0.62,0.84c-0.42,0.2-1.12,0.32-2.04,0.37c0.05-0.17,0.13-0.34,0.21-0.5c0.12-0.23,0.28-0.45,0.47-0.64
		c0.17-0.17,0.38-0.31,0.6-0.41C54.33,41.43,54.57,41.38,54.81,41.38z"/>
	<path class="st3" d="M62.08,37.66c0.01,0.19-0.03,0.38-0.11,0.56c-0.08,0.18-0.19,0.33-0.33,0.46c-0.27,0.25-0.62,0.39-0.98,0.39
		c-0.29,0.01-0.58-0.09-0.8-0.27c-0.12-0.1-0.22-0.23-0.29-0.38c-0.06-0.15-0.09-0.31-0.08-0.47c0-0.19,0.03-0.38,0.1-0.56
		c0.07-0.18,0.19-0.34,0.33-0.47c0.26-0.26,0.61-0.4,0.98-0.4c0.29,0,0.58,0.1,0.81,0.28c0.12,0.1,0.22,0.24,0.29,0.39
		C62.06,37.34,62.09,37.5,62.08,37.66z"/>
	<path class="st3" d="M61.46,39.71l-1.87,7.78h-2.17l1.87-7.78H61.46z"/>
	<path class="st3" d="M69.16,40.07c-0.36-0.19-0.76-0.33-1.16-0.41c-0.39-0.08-0.79-0.12-1.19-0.12c-0.71-0.01-1.41,0.12-2.07,0.37
		c-0.6,0.23-1.15,0.57-1.61,1.02c-0.45,0.44-0.8,0.97-1.04,1.55c-0.25,0.62-0.37,1.28-0.37,1.95c0,0.79,0.22,1.44,0.65,1.92
		s1.11,0.74,2,0.74c0.3,0,0.6-0.04,0.89-0.13c0.09-0.03,0.18-0.06,0.27-0.09c-0.1,0.36-0.3,0.68-0.57,0.93
		c-0.31,0.28-0.78,0.42-1.4,0.42c-0.36,0.01-0.73-0.04-1.08-0.13c-0.29-0.08-0.56-0.19-0.82-0.34l-0.23-0.14l-0.79,1.81l0.19,0.1
		c0.35,0.18,0.71,0.32,1.09,0.42c0.46,0.12,0.93,0.17,1.4,0.17c0.61,0.01,1.22-0.07,1.81-0.23c0.48-0.14,0.92-0.38,1.29-0.7
		c0.36-0.32,0.65-0.71,0.85-1.14c0.22-0.48,0.39-0.99,0.51-1.51l1.52-6.38L69.16,40.07z M64.8,45.26c-0.34,0-0.58-0.08-0.71-0.26
		c-0.16-0.24-0.24-0.53-0.22-0.82c0-0.37,0.06-0.73,0.19-1.07c0.12-0.32,0.31-0.62,0.54-0.87c0.24-0.26,0.54-0.47,0.86-0.61
		c0.33-0.14,0.68-0.21,1.04-0.2c0.12,0,0.23,0.01,0.34,0.02l-0.82,3.42c-0.16,0.11-0.34,0.2-0.53,0.27
		C65.27,45.22,65.03,45.26,64.8,45.26z"/>
	<path class="st3" d="M76.72,42.14c0,0.45-0.06,0.9-0.17,1.33l-0.97,4.02h-2.17l0.95-3.95c0.04-0.21,0.09-0.43,0.14-0.65
		c0.04-0.19,0.06-0.39,0.07-0.58c0.01-0.23-0.06-0.45-0.2-0.63c-0.14-0.19-0.49-0.23-0.75-0.23c-0.17,0-0.35,0.02-0.52,0.05
		c-0.13,0.02-0.24,0.05-0.35,0.08l-1.4,5.92h-2.17l2.64-11.01l2.26-0.36l-0.85,3.57l0.25-0.05c0.23-0.04,0.46-0.07,0.69-0.07
		c0.39-0.01,0.78,0.06,1.14,0.19c0.31,0.12,0.58,0.3,0.81,0.54c0.22,0.24,0.38,0.52,0.47,0.83C76.68,41.46,76.73,41.8,76.72,42.14z"
		/>
	<path class="st3" d="M79.69,45.16l-0.02,0.25c-0.06,0.79-0.28,1.56-0.65,2.27c-0.36,0.71-0.8,1.37-1.32,1.98l-0.1,0.12l-1.64-0.51
		l0.16-0.26c0.36-0.56,0.66-1.16,0.89-1.79c0.23-0.59,0.37-1.21,0.42-1.84l0.02-0.22H79.69z"/>
	<path class="st3" d="M87.31,37.33l-2.43,10.16h-2.24l2.43-10.16H87.31z"/>
	<path class="st3" d="M94.12,42.11c0,0.22-0.02,0.44-0.05,0.66c-0.03,0.22-0.07,0.46-0.12,0.69l-0.97,4.04H90.8l0.93-3.95
		c0.05-0.2,0.09-0.41,0.14-0.62c0.04-0.19,0.07-0.38,0.08-0.58c0.02-0.23-0.05-0.47-0.18-0.66c-0.11-0.16-0.38-0.23-0.78-0.23
		c-0.28,0-0.56,0.02-0.84,0.08l-1.41,5.96h-2.17l1.78-7.43l0.13-0.04c0.38-0.11,0.82-0.22,1.3-0.32c0.53-0.11,1.08-0.16,1.62-0.16
		c0.92,0,1.61,0.23,2.06,0.7C93.9,40.73,94.12,41.34,94.12,42.11z"/>
	<path class="st3" d="M101.62,40.01l-0.79,1.78l-0.21-0.09c-0.17-0.07-0.35-0.13-0.53-0.18c-0.23-0.06-0.46-0.08-0.69-0.08
		c-0.34-0.01-0.67,0.07-0.98,0.22c-0.29,0.14-0.54,0.35-0.74,0.6c-0.21,0.27-0.38,0.59-0.48,0.92c-0.12,0.37-0.17,0.76-0.17,1.15
		c0,0.2,0.02,0.41,0.07,0.61c0.04,0.16,0.11,0.32,0.21,0.45c0.1,0.13,0.23,0.23,0.39,0.28c0.22,0.08,0.45,0.12,0.68,0.11
		c0.29,0,0.57-0.04,0.85-0.12c0.22-0.06,0.43-0.14,0.63-0.23l0.31-0.16l0.19,1.89l-0.15,0.07c-0.29,0.13-0.59,0.23-0.89,0.31
		c-0.41,0.11-0.84,0.16-1.27,0.16c-0.48,0.01-0.96-0.07-1.42-0.25c-0.38-0.15-0.73-0.39-1.01-0.68c-0.27-0.29-0.47-0.64-0.6-1.03
		c-0.13-0.4-0.19-0.82-0.19-1.24c0-0.64,0.1-1.28,0.31-1.89c0.2-0.58,0.51-1.12,0.9-1.59c0.4-0.46,0.89-0.83,1.45-1.09
		c0.61-0.27,1.27-0.41,1.94-0.4c0.35,0,0.7,0.03,1.05,0.1c0.31,0.06,0.62,0.16,0.91,0.29L101.62,40.01z"/>
	<path class="st5" d="M45.2,52.69c0.05,0.1,0.11,0.21,0.18,0.35c0.07,0.14,0.14,0.29,0.21,0.46c0.07,0.16,0.15,0.33,0.22,0.5
		c0.07,0.17,0.14,0.33,0.2,0.48l0.21-0.48c0.07-0.17,0.15-0.34,0.22-0.5c0.07-0.16,0.14-0.31,0.21-0.46
		c0.07-0.15,0.13-0.26,0.18-0.35h0.62c0.03,0.2,0.06,0.42,0.08,0.67c0.02,0.25,0.05,0.51,0.07,0.78c0.02,0.27,0.04,0.54,0.05,0.81
		c0.02,0.27,0.03,0.52,0.04,0.76h-0.66c-0.01-0.29-0.02-0.61-0.03-0.96s-0.04-0.69-0.07-1.05c-0.05,0.12-0.11,0.26-0.18,0.41
		c-0.07,0.15-0.13,0.3-0.19,0.44c-0.06,0.15-0.12,0.29-0.18,0.42l-0.16,0.35h-0.48l-0.15-0.35c-0.06-0.14-0.12-0.28-0.18-0.42
		c-0.06-0.16-0.13-0.3-0.19-0.44l-0.17-0.41c-0.03,0.35-0.05,0.7-0.07,1.05c-0.01,0.34-0.03,0.66-0.03,0.96H44.3
		c0.01-0.24,0.03-0.49,0.04-0.76c0.02-0.27,0.03-0.54,0.05-0.81c0.02-0.27,0.04-0.53,0.07-0.78c0.02-0.25,0.05-0.47,0.08-0.67H45.2z
		"/>
	<path class="st5" d="M48.15,54.58c0-0.18,0.03-0.36,0.09-0.53c0.06-0.14,0.14-0.27,0.25-0.38c0.1-0.1,0.22-0.18,0.35-0.23
		c0.13-0.05,0.27-0.08,0.41-0.08c0.14-0.01,0.29,0.01,0.42,0.07c0.13,0.05,0.26,0.13,0.36,0.23c0.2,0.24,0.31,0.56,0.28,0.88
		c0,0.04,0,0.08,0,0.12c0,0.04,0,0.08-0.01,0.12h-1.47c0.01,0.06,0.03,0.12,0.06,0.18s0.08,0.1,0.13,0.13
		c0.13,0.08,0.29,0.13,0.44,0.12c0.12,0,0.24-0.01,0.35-0.03c0.1-0.02,0.19-0.04,0.28-0.08l0.09,0.53
		c-0.04,0.02-0.09,0.04-0.14,0.05c-0.06,0.02-0.13,0.03-0.19,0.05c-0.08,0.01-0.15,0.03-0.23,0.03c-0.08,0.01-0.16,0.01-0.24,0.01
		c-0.18,0-0.37-0.03-0.54-0.09c-0.14-0.05-0.27-0.14-0.38-0.25c-0.1-0.11-0.18-0.24-0.22-0.38C48.18,54.9,48.15,54.74,48.15,54.58z
		 M49.67,54.34c0-0.05-0.01-0.1-0.03-0.16c-0.02-0.05-0.04-0.1-0.07-0.14c-0.03-0.04-0.08-0.08-0.13-0.1
		c-0.06-0.03-0.12-0.04-0.19-0.04c-0.06,0-0.13,0.01-0.19,0.04c-0.05,0.02-0.09,0.06-0.13,0.1c-0.04,0.04-0.06,0.09-0.08,0.14
		c-0.02,0.05-0.03,0.1-0.04,0.16L49.67,54.34z"/>
	<path class="st5" d="M52.82,55.64c-0.06,0.02-0.12,0.03-0.2,0.05c-0.08,0.02-0.16,0.03-0.24,0.04c-0.08,0.01-0.17,0.02-0.25,0.03
		c-0.09,0.01-0.17,0.01-0.25,0.01c-0.17,0-0.34-0.03-0.5-0.08c-0.14-0.05-0.27-0.13-0.37-0.24c-0.1-0.11-0.18-0.23-0.23-0.37
		c-0.06-0.16-0.08-0.33-0.08-0.49c0-0.17,0.02-0.34,0.07-0.5c0.04-0.14,0.11-0.27,0.2-0.38c0.09-0.1,0.2-0.19,0.32-0.24
		c0.14-0.06,0.28-0.08,0.43-0.08c0.08,0,0.16,0.01,0.24,0.03c0.07,0.02,0.15,0.04,0.21,0.07v-1.04l0.65-0.11V55.64z M51.35,54.55
		c-0.01,0.17,0.04,0.34,0.14,0.48c0.05,0.06,0.11,0.11,0.18,0.14c0.07,0.03,0.15,0.05,0.22,0.04c0.06,0,0.11,0,0.16,0
		s0.09-0.01,0.12-0.02v-1.18c-0.05-0.03-0.1-0.05-0.16-0.07c-0.06-0.02-0.13-0.03-0.2-0.03C51.51,53.92,51.35,54.13,51.35,54.55
		L51.35,54.55z"/>
	<path class="st5" d="M54.14,52.76c0,0.05-0.01,0.1-0.03,0.15c-0.02,0.05-0.05,0.09-0.09,0.13c-0.08,0.07-0.17,0.1-0.27,0.1
		c-0.1,0-0.2-0.04-0.27-0.1c-0.07-0.07-0.12-0.18-0.12-0.28c0-0.11,0.04-0.21,0.12-0.28c0.08-0.07,0.17-0.1,0.27-0.1
		c0.1,0,0.2,0.04,0.27,0.1c0.04,0.04,0.07,0.08,0.09,0.13C54.13,52.65,54.14,52.71,54.14,52.76z M54.08,55.71h-0.65v-2.29h0.65
		L54.08,55.71z"/>
	<path class="st5" d="M54.58,54.57c0-0.16,0.03-0.32,0.08-0.47c0.05-0.14,0.13-0.27,0.23-0.39c0.1-0.11,0.23-0.2,0.37-0.26
		c0.16-0.07,0.33-0.1,0.5-0.09c0.11,0,0.23,0.01,0.34,0.03c0.1,0.02,0.2,0.05,0.3,0.09l-0.14,0.52c-0.07-0.02-0.13-0.05-0.2-0.06
		c-0.08-0.02-0.16-0.03-0.24-0.02c-0.08-0.01-0.16,0.01-0.24,0.04c-0.07,0.03-0.14,0.08-0.19,0.14c-0.1,0.13-0.15,0.3-0.14,0.47
		c-0.01,0.17,0.04,0.34,0.13,0.48c0.06,0.06,0.13,0.11,0.21,0.14c0.08,0.03,0.17,0.04,0.25,0.03c0.08,0,0.17-0.01,0.25-0.02
		c0.09-0.01,0.17-0.04,0.25-0.07l0.09,0.53c-0.09,0.04-0.19,0.07-0.28,0.08c-0.12,0.02-0.25,0.04-0.37,0.04
		c-0.18,0-0.37-0.03-0.54-0.09c-0.14-0.06-0.27-0.14-0.37-0.25c-0.1-0.11-0.17-0.24-0.21-0.38C54.6,54.89,54.58,54.73,54.58,54.57z"
		/>
	<path class="st5" d="M57.58,53.36c0.16,0,0.32,0.02,0.48,0.07c0.12,0.04,0.22,0.1,0.31,0.19c0.08,0.08,0.13,0.19,0.16,0.3
		c0.03,0.13,0.05,0.26,0.05,0.39v1.35c-0.09,0.02-0.22,0.04-0.39,0.07c-0.2,0.03-0.4,0.04-0.6,0.04c-0.14,0-0.27-0.01-0.4-0.04
		c-0.11-0.02-0.22-0.07-0.31-0.13c-0.09-0.06-0.15-0.14-0.2-0.23c-0.05-0.11-0.07-0.23-0.07-0.35c0-0.12,0.02-0.24,0.08-0.34
		c0.05-0.09,0.13-0.17,0.22-0.22c0.1-0.06,0.2-0.1,0.31-0.12c0.12-0.03,0.24-0.04,0.36-0.04c0.07,0,0.15,0,0.22,0.01
		c0.05,0.01,0.1,0.02,0.16,0.03v-0.06c0-0.05-0.01-0.1-0.02-0.14c-0.02-0.05-0.04-0.09-0.08-0.12c-0.1-0.08-0.22-0.11-0.35-0.1
		c-0.11,0-0.22,0.01-0.33,0.02c-0.09,0.01-0.19,0.04-0.28,0.07l-0.08-0.52c0.05-0.01,0.09-0.03,0.14-0.04
		c0.06-0.01,0.12-0.02,0.18-0.03c0.07-0.01,0.14-0.02,0.21-0.03C57.43,53.36,57.5,53.36,57.58,53.36z M57.63,55.26
		c0.06,0,0.12,0,0.18,0c0.05,0,0.09-0.01,0.14-0.01v-0.5c-0.03,0-0.07-0.01-0.12-0.02c-0.05-0.01-0.1-0.01-0.14-0.01
		c-0.06,0-0.12,0-0.17,0.01c-0.05,0.01-0.1,0.02-0.14,0.04c-0.04,0.02-0.07,0.05-0.1,0.09c-0.02,0.04-0.03,0.08-0.03,0.13
		c0,0.04,0,0.08,0.02,0.12c0.02,0.04,0.05,0.07,0.08,0.09C57.44,55.24,57.54,55.26,57.63,55.26z"/>
	<path class="st5" d="M60.08,55.75c-0.15,0-0.31-0.02-0.46-0.06c-0.1-0.03-0.2-0.08-0.28-0.16c-0.07-0.07-0.12-0.15-0.14-0.25
		c-0.03-0.11-0.04-0.22-0.04-0.33v-2.52l0.65-0.11v2.5c0,0.05,0,0.1,0.01,0.16c0.01,0.04,0.02,0.08,0.05,0.12
		c0.03,0.04,0.07,0.06,0.11,0.08c0.06,0.02,0.12,0.04,0.19,0.04L60.08,55.75z"/>
	<path class="st5" d="M63.66,53.02c0.03,0.12,0.07,0.25,0.11,0.4c0.04,0.15,0.09,0.3,0.14,0.47c0.05,0.16,0.1,0.32,0.14,0.48
		c0.05,0.16,0.1,0.31,0.14,0.44c0.04-0.16,0.08-0.31,0.12-0.48c0.04-0.17,0.08-0.35,0.11-0.54c0.03-0.18,0.07-0.37,0.1-0.56
		s0.07-0.36,0.09-0.53h0.71c-0.1,0.51-0.22,1.02-0.35,1.54c-0.13,0.52-0.28,1.01-0.43,1.48h-0.62c-0.1-0.28-0.2-0.57-0.3-0.88
		c-0.1-0.31-0.19-0.61-0.28-0.92c-0.09,0.31-0.18,0.62-0.28,0.92c-0.09,0.3-0.19,0.6-0.29,0.88h-0.62c-0.16-0.47-0.3-0.96-0.43-1.48
		c-0.13-0.52-0.25-1.03-0.35-1.54h0.74c0.03,0.17,0.06,0.35,0.1,0.53s0.07,0.37,0.11,0.56c0.04,0.19,0.08,0.37,0.12,0.54
		c0.04,0.17,0.08,0.34,0.12,0.48c0.05-0.14,0.1-0.29,0.16-0.45c0.05-0.16,0.1-0.32,0.14-0.48c0.05-0.16,0.09-0.31,0.13-0.47
		s0.07-0.28,0.11-0.4H63.66z"/>
	<path class="st5" d="M65.46,54.58c0-0.18,0.03-0.36,0.09-0.53c0.06-0.14,0.14-0.27,0.25-0.38c0.1-0.1,0.22-0.18,0.35-0.23
		c0.13-0.05,0.27-0.08,0.41-0.08c0.14-0.01,0.29,0.01,0.42,0.07c0.13,0.05,0.26,0.13,0.36,0.23c0.2,0.24,0.31,0.56,0.28,0.88
		c0,0.04,0,0.08,0,0.12c0,0.05,0,0.08-0.01,0.12h-1.47c0.01,0.06,0.03,0.12,0.06,0.18c0.03,0.05,0.08,0.1,0.13,0.13
		c0.13,0.09,0.29,0.13,0.44,0.12c0.12,0,0.23-0.01,0.35-0.03c0.1-0.02,0.19-0.04,0.28-0.08l0.09,0.53
		c-0.04,0.02-0.09,0.04-0.14,0.05c-0.06,0.02-0.13,0.03-0.19,0.05c-0.07,0.01-0.15,0.02-0.23,0.03c-0.08,0.01-0.16,0.01-0.24,0.01
		c-0.18,0-0.37-0.03-0.54-0.09c-0.14-0.05-0.27-0.14-0.38-0.25c-0.1-0.11-0.18-0.24-0.22-0.38C65.49,54.9,65.46,54.74,65.46,54.58z
		 M66.98,54.34c0-0.05-0.01-0.1-0.03-0.16c-0.02-0.05-0.04-0.1-0.07-0.14c-0.04-0.04-0.08-0.08-0.13-0.1
		c-0.06-0.03-0.12-0.04-0.19-0.04c-0.06,0-0.13,0.01-0.19,0.04c-0.05,0.02-0.1,0.06-0.13,0.1c-0.04,0.04-0.06,0.09-0.08,0.14
		c-0.02,0.05-0.03,0.1-0.04,0.16L66.98,54.34z"/>
	<path class="st5" d="M68.82,52.76c0,0.05-0.01,0.1-0.03,0.15c-0.02,0.05-0.05,0.09-0.09,0.13c-0.08,0.07-0.17,0.1-0.27,0.1
		c-0.1,0-0.2-0.04-0.27-0.1c-0.07-0.07-0.12-0.18-0.12-0.28c0-0.11,0.04-0.21,0.12-0.28c0.08-0.07,0.17-0.1,0.27-0.1
		c0.1,0,0.2,0.04,0.27,0.1c0.04,0.04,0.07,0.08,0.09,0.13C68.82,52.65,68.82,52.71,68.82,52.76z M68.76,55.71h-0.65v-2.29h0.65
		V55.71z"/>
	<path class="st5" d="M71.35,55.42c0,0.37-0.09,0.65-0.28,0.83c-0.19,0.18-0.48,0.27-0.88,0.27c-0.14,0-0.28-0.01-0.42-0.04
		c-0.13-0.02-0.26-0.06-0.39-0.1l0.11-0.55c0.1,0.04,0.21,0.07,0.32,0.1c0.13,0.02,0.25,0.04,0.38,0.03c0.07,0.01,0.14,0,0.21-0.02
		c0.07-0.02,0.13-0.06,0.18-0.1c0.08-0.08,0.12-0.2,0.12-0.31v-0.08c-0.07,0.03-0.14,0.06-0.22,0.07c-0.08,0.02-0.16,0.02-0.24,0.02
		c-0.13,0.01-0.27-0.01-0.39-0.06c-0.13-0.05-0.24-0.12-0.33-0.22c-0.18-0.22-0.27-0.5-0.25-0.79c0-0.16,0.02-0.32,0.08-0.47
		c0.05-0.13,0.13-0.25,0.23-0.36c0.11-0.1,0.23-0.18,0.37-0.23c0.16-0.06,0.32-0.08,0.49-0.08c0.08,0,0.16,0,0.24,0.01
		c0.09,0.01,0.17,0.02,0.25,0.03c0.08,0.01,0.16,0.02,0.23,0.04c0.08,0.02,0.14,0.03,0.2,0.05V55.42z M69.92,54.49
		c0,0.36,0.15,0.54,0.44,0.54c0.06,0,0.13-0.01,0.19-0.03c0.05-0.01,0.11-0.03,0.16-0.06v-1.04c-0.03,0-0.07-0.01-0.11-0.02
		c-0.05,0-0.1,0-0.16,0c-0.07-0.01-0.15,0.01-0.21,0.04c-0.07,0.03-0.13,0.08-0.17,0.13C69.97,54.19,69.92,54.34,69.92,54.49z"/>
	<path class="st5" d="M71.96,55.71v-3.27l0.65-0.11v1.1c0.12-0.04,0.24-0.06,0.36-0.06c0.16,0,0.32,0.02,0.47,0.08
		c0.12,0.05,0.22,0.12,0.3,0.22c0.08,0.1,0.13,0.21,0.16,0.33c0.03,0.14,0.05,0.28,0.05,0.43v1.29h-0.65V54.5
		c0.01-0.15-0.02-0.31-0.08-0.44c-0.03-0.05-0.08-0.08-0.13-0.11c-0.05-0.02-0.11-0.03-0.17-0.03c-0.05,0-0.11,0.01-0.16,0.02
		l-0.14,0.03v1.74H71.96z"/>
	<path class="st5" d="M74.5,52.85l0.65-0.1v0.67h0.78v0.54h-0.78v0.8c-0.01,0.11,0.02,0.23,0.07,0.33c0.03,0.04,0.08,0.08,0.13,0.1
		c0.05,0.02,0.11,0.03,0.16,0.02c0.07,0,0.14-0.01,0.22-0.02c0.07-0.01,0.14-0.03,0.2-0.05l0.09,0.51
		c-0.08,0.03-0.17,0.06-0.26,0.08c-0.12,0.03-0.23,0.04-0.35,0.03c-0.15,0-0.3-0.02-0.44-0.07c-0.11-0.04-0.2-0.11-0.28-0.2
		c-0.07-0.09-0.12-0.2-0.15-0.31c-0.03-0.13-0.04-0.27-0.04-0.41V52.85z"/>
	<path class="st5" d="M79.56,55.13v0.58h-2.02v-3.02h0.68v2.43H79.56z"/>
	<path class="st5" d="M82.09,54.56c0,0.17-0.02,0.33-0.08,0.49c-0.05,0.14-0.13,0.27-0.23,0.38c-0.1,0.11-0.22,0.19-0.36,0.25
		c-0.3,0.12-0.63,0.12-0.92,0c-0.13-0.06-0.26-0.14-0.35-0.25c-0.1-0.11-0.18-0.24-0.23-0.38c-0.06-0.16-0.08-0.33-0.08-0.49
		c0-0.17,0.03-0.33,0.08-0.49c0.05-0.14,0.13-0.27,0.24-0.38c0.1-0.11,0.22-0.19,0.36-0.24c0.14-0.06,0.3-0.09,0.45-0.09
		c0.16,0,0.31,0.03,0.46,0.09c0.13,0.06,0.25,0.14,0.35,0.24c0.1,0.11,0.18,0.24,0.23,0.38C82.07,54.23,82.09,54.39,82.09,54.56z
		 M81.43,54.56c0.01-0.17-0.03-0.33-0.12-0.47c-0.04-0.06-0.09-0.1-0.15-0.13c-0.06-0.03-0.13-0.04-0.19-0.04
		c-0.07,0-0.13,0.01-0.19,0.04c-0.06,0.03-0.11,0.07-0.15,0.13c-0.09,0.14-0.13,0.31-0.12,0.47c-0.01,0.17,0.03,0.33,0.12,0.48
		c0.04,0.06,0.09,0.1,0.15,0.13c0.06,0.03,0.13,0.05,0.2,0.04c0.07,0,0.13-0.01,0.19-0.04c0.06-0.03,0.11-0.08,0.15-0.13
		C81.4,54.9,81.44,54.73,81.43,54.56z"/>
	<path class="st5" d="M83.25,55.25c0.09,0.01,0.17-0.01,0.25-0.04c0.02-0.01,0.05-0.03,0.06-0.06c0.01-0.02,0.02-0.05,0.02-0.08
		c0-0.03-0.01-0.06-0.03-0.08c-0.02-0.02-0.04-0.04-0.07-0.06c-0.09-0.05-0.19-0.1-0.29-0.13c-0.1-0.04-0.19-0.08-0.28-0.12
		c-0.08-0.04-0.15-0.09-0.21-0.15c-0.06-0.06-0.11-0.13-0.14-0.2c-0.03-0.09-0.05-0.19-0.05-0.28c0-0.1,0.02-0.19,0.06-0.28
		c0.04-0.09,0.1-0.17,0.18-0.23c0.19-0.13,0.42-0.2,0.66-0.19c0.13,0,0.27,0.01,0.4,0.04c0.11,0.02,0.21,0.04,0.31,0.08l-0.11,0.51
		c-0.08-0.03-0.16-0.05-0.25-0.07c-0.1-0.02-0.2-0.03-0.3-0.03c-0.2,0-0.31,0.06-0.31,0.17c0,0.02,0,0.05,0.01,0.07
		c0.01,0.02,0.03,0.04,0.05,0.06c0.03,0.02,0.07,0.04,0.11,0.06c0.04,0.02,0.1,0.05,0.17,0.07c0.12,0.04,0.24,0.09,0.35,0.16
		c0.08,0.04,0.16,0.1,0.22,0.16c0.05,0.06,0.09,0.12,0.11,0.2c0.02,0.08,0.03,0.17,0.03,0.25c0.01,0.1-0.02,0.2-0.06,0.29
		c-0.04,0.09-0.11,0.17-0.19,0.22c-0.22,0.13-0.47,0.19-0.72,0.17c-0.17,0-0.34-0.01-0.51-0.05c-0.1-0.02-0.19-0.05-0.28-0.09
		l0.11-0.53c0.11,0.04,0.22,0.08,0.34,0.1C83.02,55.23,83.13,55.24,83.25,55.25z"/>
	<path class="st5" d="M85.36,55.25c0.09,0.01,0.17-0.01,0.25-0.04c0.02-0.01,0.05-0.03,0.06-0.06c0.01-0.02,0.02-0.05,0.02-0.08
		c0-0.03-0.01-0.06-0.03-0.08c-0.02-0.02-0.04-0.04-0.07-0.06c-0.09-0.05-0.19-0.1-0.29-0.13c-0.1-0.04-0.19-0.08-0.28-0.12
		c-0.08-0.04-0.15-0.09-0.21-0.15c-0.06-0.06-0.1-0.13-0.14-0.2c-0.03-0.09-0.05-0.19-0.05-0.28c0-0.1,0.02-0.19,0.06-0.28
		c0.04-0.09,0.1-0.17,0.18-0.23c0.19-0.13,0.42-0.2,0.66-0.19c0.13,0,0.27,0.01,0.4,0.04c0.11,0.02,0.21,0.04,0.31,0.08l-0.11,0.51
		c-0.08-0.03-0.16-0.05-0.25-0.07c-0.1-0.02-0.2-0.03-0.3-0.03c-0.2,0-0.31,0.06-0.31,0.17c0,0.02,0,0.05,0.01,0.07
		c0.01,0.02,0.03,0.04,0.05,0.06c0.03,0.02,0.07,0.04,0.11,0.06c0.04,0.02,0.1,0.05,0.17,0.07c0.12,0.04,0.24,0.1,0.35,0.16
		c0.08,0.04,0.16,0.1,0.22,0.16c0.05,0.06,0.09,0.13,0.11,0.2c0.02,0.08,0.03,0.17,0.03,0.25c0.01,0.1-0.02,0.2-0.06,0.29
		c-0.04,0.09-0.11,0.17-0.19,0.22c-0.22,0.13-0.47,0.19-0.72,0.17c-0.17,0-0.34-0.01-0.51-0.05c-0.1-0.02-0.19-0.05-0.28-0.09
		l0.11-0.53c0.11,0.04,0.22,0.08,0.34,0.1C85.13,55.23,85.25,55.24,85.36,55.25z"/>
	<path class="st5" d="M89.28,55.77c-0.49,0-0.86-0.14-1.12-0.41c-0.26-0.27-0.39-0.66-0.39-1.16c0-0.23,0.04-0.45,0.12-0.67
		c0.07-0.18,0.18-0.35,0.32-0.49c0.14-0.14,0.3-0.24,0.49-0.31c0.2-0.07,0.4-0.11,0.61-0.1c0.12,0,0.23,0.01,0.35,0.03
		c0.09,0.02,0.18,0.04,0.28,0.07c0.07,0.02,0.13,0.05,0.2,0.08c0.05,0.03,0.09,0.05,0.11,0.06l-0.2,0.55
		c-0.1-0.05-0.21-0.1-0.32-0.13c-0.14-0.04-0.28-0.05-0.42-0.05c-0.11,0-0.21,0.02-0.31,0.05c-0.1,0.03-0.19,0.09-0.27,0.17
		c-0.08,0.09-0.15,0.19-0.19,0.3c-0.05,0.14-0.07,0.29-0.07,0.44c0,0.13,0.01,0.26,0.04,0.39c0.03,0.11,0.08,0.22,0.15,0.31
		c0.07,0.09,0.16,0.16,0.27,0.21c0.13,0.05,0.26,0.08,0.4,0.08c0.09,0,0.18-0.01,0.27-0.02c0.08-0.01,0.16-0.03,0.21-0.04
		c0.05-0.01,0.11-0.03,0.16-0.05L90.09,55l0.19,0.54c-0.13,0.07-0.26,0.12-0.41,0.16C89.68,55.75,89.48,55.77,89.28,55.77z"/>
	<path class="st5" d="M90.52,54.58c0-0.18,0.03-0.36,0.09-0.53c0.06-0.14,0.14-0.27,0.25-0.38c0.1-0.1,0.22-0.18,0.35-0.23
		c0.13-0.05,0.27-0.08,0.41-0.08c0.14-0.01,0.29,0.01,0.42,0.07c0.13,0.05,0.26,0.13,0.36,0.23c0.2,0.24,0.31,0.56,0.28,0.88
		c0,0.04,0,0.08,0,0.12c0,0.05,0,0.08-0.01,0.12H91.2c0.01,0.06,0.03,0.12,0.06,0.18c0.03,0.05,0.08,0.1,0.13,0.13
		c0.13,0.09,0.29,0.13,0.44,0.12c0.12,0,0.23-0.01,0.35-0.03c0.1-0.02,0.19-0.04,0.28-0.08l0.09,0.53
		c-0.04,0.02-0.09,0.04-0.14,0.05c-0.06,0.02-0.13,0.03-0.19,0.05c-0.07,0.01-0.15,0.02-0.23,0.03c-0.08,0.01-0.16,0.01-0.24,0.01
		c-0.18,0-0.37-0.03-0.54-0.09c-0.14-0.05-0.27-0.14-0.38-0.25c-0.1-0.11-0.18-0.24-0.22-0.38C90.55,54.9,90.52,54.74,90.52,54.58z
		 M92.05,54.34c0-0.05-0.01-0.1-0.03-0.16c-0.02-0.05-0.04-0.1-0.07-0.14c-0.04-0.04-0.08-0.08-0.13-0.1
		c-0.06-0.03-0.12-0.04-0.19-0.04c-0.06,0-0.13,0.01-0.19,0.04c-0.05,0.02-0.1,0.06-0.13,0.1c-0.04,0.04-0.06,0.09-0.08,0.14
		c-0.02,0.05-0.03,0.1-0.04,0.16L92.05,54.34z"/>
	<path class="st5" d="M93.17,53.51c0.14-0.04,0.28-0.07,0.43-0.09c0.18-0.03,0.37-0.04,0.55-0.04c0.16,0,0.33,0.02,0.48,0.08
		c0.12,0.04,0.23,0.12,0.31,0.22c0.07,0.1,0.13,0.21,0.16,0.33c0.03,0.14,0.05,0.28,0.05,0.43v1.29H94.5V54.5
		c0.01-0.15-0.02-0.31-0.08-0.44c-0.04-0.05-0.08-0.08-0.14-0.11c-0.05-0.02-0.11-0.03-0.17-0.02c-0.05,0-0.09,0-0.15,0.01
		c-0.05,0.01-0.1,0.01-0.14,0.01v1.76h-0.65L93.17,53.51z"/>
	<path class="st5" d="M95.72,52.85l0.65-0.1v0.67h0.78v0.54h-0.78v0.8c-0.01,0.11,0.02,0.23,0.07,0.33c0.03,0.04,0.08,0.08,0.13,0.1
		c0.05,0.02,0.11,0.03,0.16,0.02c0.07,0,0.14-0.01,0.22-0.02c0.07-0.01,0.14-0.03,0.2-0.05l0.09,0.51
		c-0.08,0.03-0.17,0.06-0.26,0.08c-0.12,0.03-0.23,0.04-0.35,0.03c-0.15,0.01-0.3-0.02-0.44-0.07c-0.11-0.04-0.2-0.11-0.28-0.2
		c-0.07-0.09-0.12-0.2-0.15-0.31c-0.03-0.13-0.04-0.27-0.04-0.41V52.85z"/>
	<path class="st5" d="M97.48,54.58c0-0.18,0.03-0.36,0.09-0.53c0.06-0.14,0.14-0.27,0.25-0.38c0.1-0.1,0.22-0.18,0.35-0.23
		c0.13-0.05,0.27-0.08,0.41-0.08c0.14-0.01,0.29,0.01,0.42,0.07c0.13,0.05,0.26,0.13,0.36,0.23c0.2,0.24,0.31,0.56,0.28,0.88
		c0,0.04,0,0.08,0,0.12c0,0.04,0,0.08-0.01,0.12h-1.48c0.01,0.06,0.03,0.12,0.06,0.18c0.03,0.05,0.08,0.1,0.13,0.13
		c0.13,0.09,0.29,0.13,0.45,0.12c0.12,0,0.23-0.01,0.35-0.03c0.1-0.02,0.19-0.04,0.28-0.08l0.09,0.53
		c-0.04,0.02-0.09,0.04-0.14,0.05c-0.06,0.02-0.13,0.03-0.19,0.04c-0.07,0.01-0.15,0.02-0.23,0.03c-0.08,0.01-0.16,0.01-0.24,0.01
		c-0.18,0-0.37-0.03-0.54-0.09c-0.14-0.05-0.27-0.14-0.38-0.25c-0.1-0.11-0.18-0.24-0.22-0.38C97.5,54.9,97.48,54.74,97.48,54.58z
		 M99,54.34c0-0.05-0.01-0.1-0.03-0.16c-0.02-0.05-0.04-0.1-0.07-0.14c-0.04-0.04-0.08-0.08-0.13-0.1
		c-0.06-0.03-0.12-0.04-0.19-0.04c-0.06,0-0.13,0.01-0.19,0.04c-0.05,0.02-0.1,0.06-0.13,0.1c-0.04,0.04-0.06,0.09-0.08,0.14
		c-0.02,0.05-0.03,0.1-0.04,0.16L99,54.34z"/>
	<path class="st5" d="M101.51,54c-0.06-0.01-0.13-0.03-0.2-0.05c-0.08-0.02-0.17-0.03-0.25-0.02c-0.05,0-0.1,0-0.15,0.01
		c-0.04,0.01-0.09,0.01-0.13,0.02v1.75h-0.65v-2.17c0.13-0.05,0.27-0.09,0.41-0.12c0.17-0.04,0.35-0.06,0.53-0.05
		c0.03,0,0.08,0,0.12,0c0.05,0,0.1,0.01,0.16,0.02c0.06,0.01,0.1,0.02,0.15,0.02c0.04,0.01,0.08,0.02,0.13,0.04L101.51,54z"/>
	<path class="st5" d="M86.58,6.6c0,0-3.98,4.41-4.71,8.65c-0.72,4.23,2.44,9.22,7.73,11.88c0,0,4.65-4.81,3.22-9.93
		C91.39,12.09,86.33,12.54,86.58,6.6z"/>
	<path class="st6" d="M89.77,25.92c0.08-0.95,0.08-1.9,0.01-2.85c-0.07-0.93-0.2-1.86-0.4-2.77c-0.04-0.23-0.11-0.45-0.16-0.68
		l-0.08-0.34l-0.1-0.34c-0.07-0.23-0.14-0.45-0.2-0.68c-0.06-0.23-0.16-0.44-0.23-0.66l-0.11-0.34c-0.04-0.11-0.09-0.22-0.13-0.33
		c-0.09-0.22-0.17-0.44-0.26-0.66c-0.09-0.22-0.19-0.44-0.28-0.66c-0.09-0.22-0.19-0.44-0.27-0.67c0.16,0.18,0.31,0.37,0.47,0.56
		c0.08,0.09,0.15,0.19,0.22,0.29c0.07,0.1,0.15,0.2,0.21,0.3c0.13,0.2,0.26,0.41,0.38,0.62c0.06,0.1,0.13,0.21,0.18,0.31l0.16,0.33
		c0.11,0.22,0.21,0.44,0.31,0.66c0.1,0.22,0.17,0.47,0.26,0.69c0.04,0.11,0.08,0.23,0.12,0.35l0.1,0.35
		c0.06,0.24,0.13,0.47,0.18,0.71c0.21,0.96,0.3,1.95,0.25,2.94C90.36,24.05,90.15,25.02,89.77,25.92z"/>
	<path class="st5" d="M115.16,23.35c0,0-2.42,7.3-6.73,10.82s-11.93,3.14-18.3-1.11c0,0,2.44-8.3,9.12-9.96
		C105.92,21.44,108.63,27.41,115.16,23.35z"/>
	<path class="st6" d="M91.28,32.07c0.78-0.99,1.79-1.78,2.86-2.44l0.41-0.25c0.14-0.08,0.28-0.16,0.42-0.22
		c0.28-0.14,0.56-0.3,0.85-0.42c0.29-0.12,0.58-0.25,0.88-0.37l0.9-0.31c0.15-0.05,0.3-0.09,0.45-0.13l0.47-0.12l0.47-0.12
		c0.16-0.03,0.31-0.06,0.47-0.09c0.31-0.05,0.62-0.11,0.93-0.16c0.31-0.05,0.62-0.06,0.94-0.08l0.47-0.04c0.16,0,0.31,0,0.47,0
		l0.94,0.01c0.08,0,0.15,0,0.23,0.01l0.24,0.02c0.15,0.02,0.31,0.03,0.47,0.05c0.31,0.04,0.62,0.08,0.93,0.12
		c-0.31,0.04-0.62,0.07-0.93,0.09c-0.16,0.01-0.31,0.02-0.47,0.03l-0.23,0.02c-0.08,0-0.16,0.02-0.23,0.03l-0.92,0.11
		c-0.16,0.02-0.31,0.03-0.46,0.05l-0.45,0.08c-0.3,0.05-0.6,0.11-0.9,0.16l-0.89,0.2l-0.45,0.1l-0.44,0.13
		c-0.29,0.08-0.59,0.16-0.88,0.25c-1.16,0.36-2.29,0.81-3.38,1.35C93.33,30.7,92.27,31.34,91.28,32.07z"/>
</g>
</svg>
